<!-- 384x384アイコン -->
<svg width="384" height="384" viewBox="0 0 384 384" xmlns="http://www.w3.org/2000/svg">
  <defs>
    <linearGradient id="bg384" x1="0%" y1="0%" x2="100%" y2="100%">
      <stop offset="0%" style="stop-color:#87CEEB"/>
      <stop offset="30%" style="stop-color:#4682B4"/>
      <stop offset="70%" style="stop-color:#2E8B57"/>
      <stop offset="100%" style="stop-color:#228B22"/>
    </linearGradient>
    <radialGradient id="mt384" cx="50%" cy="30%" r="60%">
      <stop offset="0%" style="stop-color:#FFFFFF;stop-opacity:0.9"/>
      <stop offset="100%" style="stop-color:#4682B4;stop-opacity:0.5"/>
    </radialGradient>
  </defs>
  <circle cx="192" cy="192" r="180" fill="url(#bg384)" stroke="#FFFFFF" stroke-width="6"/>
  <path d="M 80 280 Q 120 220 150 240 Q 192 200 234 240 Q 264 220 304 280 L 304 320 L 80 320 Z" 
        fill="url(#mt384)" stroke="#4682B4" stroke-width="2"/>
  <circle cx="192" cy="150" r="36" fill="#FFD700" stroke="#FFA500" stroke-width="3"/>
  <text x="192" y="162" text-anchor="middle" font-size="32" fill="#8B4513">🏔️</text>
  
  <!-- 8つのジムバッジ -->
  <g transform="translate(192,150)">
    <g transform="rotate(0)"><circle cx="0" cy="-70" r="16" fill="#32CD32"/><text x="0" y="-62" text-anchor="middle" font-size="14" fill="white">⚔️</text></g>
    <g transform="rotate(45)"><circle cx="0" cy="-70" r="16" fill="#FF6347"/><text x="0" y="-62" text-anchor="middle" font-size="14" fill="white">🎺</text></g>
    <g transform="rotate(90)"><circle cx="0" cy="-70" r="16" fill="#228B22"/><text x="0" y="-62" text-anchor="middle" font-size="14" fill="white">🌲</text></g>
    <g transform="rotate(135)"><circle cx="0" cy="-70" r="16" fill="#4169E1"/><text x="0" y="-62" text-anchor="middle" font-size="14" fill="white">🌉</text></g>
    <g transform="rotate(180)"><circle cx="0" cy="-70" r="16" fill="#87CEEB"/><text x="0" y="-62" text-anchor="middle" font-size="14" fill="white">⛰️</text></g>
    <g transform="rotate(225)"><circle cx="0" cy="-70" r="16" fill="#00CED1"/><text x="0" y="-62" text-anchor="middle" font-size="14" fill="white">🌳</text></g>
    <g transform="rotate(270)"><circle cx="0" cy="-70" r="16" fill="#9370DB"/><text x="0" y="-62" text-anchor="middle" font-size="14" fill="white">🏰</text></g>
    <g transform="rotate(315)"><circle cx="0" cy="-70" r="16" fill="#FF1493"/><text x="0" y="-62" text-anchor="middle" font-size="14" fill="white">💧</text></g>
  </g>
  
  <text x="192" y="360" text-anchor="middle" font-family="Arial, sans-serif" font-size="24" font-weight="bold" 
        fill="#FFFFFF" stroke="#2c3e50" stroke-width="1">ハクサンリーグ</text>
</svg>
