<!-- 白山ジオパークスタイル PWAアイコン 96x96 -->
<svg width="96" height="96" viewBox="0 0 96 96" xmlns="http://www.w3.org/2000/svg">
  <defs>
    <linearGradient id="bgGradient" x1="0%" y1="0%" x2="100%" y2="100%">
      <stop offset="0%" style="stop-color:#20B2AA"/>
      <stop offset="100%" style="stop-color:#008B8B"/>
    </linearGradient>
    <linearGradient id="mountainGradient" x1="0%" y1="0%" x2="0%" y2="100%">
      <stop offset="0%" style="stop-color:#FFFFFF"/>
      <stop offset="25%" style="stop-color:#F0F8FF"/>
      <stop offset="65%" style="stop-color:#228B22"/>
      <stop offset="100%" style="stop-color:#006400"/>
    </linearGradient>
    <linearGradient id="riverGradient" x1="0%" y1="0%" x2="0%" y2="100%">
      <stop offset="0%" style="stop-color:#87CEEB"/>
      <stop offset="100%" style="stop-color:#4682B4"/>
    </linearGradient>
    <linearGradient id="goldGradient" x1="0%" y1="0%" x2="100%" y2="100%">
      <stop offset="0%" style="stop-color:#FFD700"/>
      <stop offset="100%" style="stop-color:#FFA500"/>
    </linearGradient>
  </defs>
  
  <!-- 背景（角丸四角形） -->
  <rect width="96" height="96" rx="20" ry="20" fill="url(#bgGradient)"/>
  
  <!-- 六角形のバッジフレーム -->
  <polygon points="48,12 66,22 66,42 48,52 30,42 30,22" 
           fill="url(#goldGradient)" 
           stroke="#B8860B" 
           stroke-width="2"/>
  
  <!-- 内側の六角形 -->
  <polygon points="48,18 60,24 60,38 48,44 36,38 36,24" 
           fill="#2E8B57"/>
  
  <!-- 白山の山々 -->
  <path d="M 38 24 L 42 18 L 48 22 L 54 18 L 58 24 L 58 38 L 38 38 Z" 
        fill="url(#mountainGradient)"/>
  
  <!-- 雪化粧した山頂 -->
  <path d="M 40 24 L 42 18 L 45 21 L 48 17 L 51 21 L 54 18 L 56 24 L 54 24 L 51 20 L 48 22 L 45 20 L 42 24 Z" 
        fill="#FFFFFF" opacity="0.9"/>
  
  <!-- 手取川の流れ -->
  <path d="M 48 28 Q 42 32 38 36 Q 42 38 48 38 Q 54 38 58 36 Q 56 32 48 28" 
        fill="url(#riverGradient)" opacity="0.8"/>
  
  <!-- バッジテキスト -->
  <text x="48" y="68" text-anchor="middle" font-family="Arial, sans-serif" 
        font-size="12" font-weight="bold" fill="#FFFFFF">白山</text>
  <text x="48" y="82" text-anchor="middle" font-family="Arial, sans-serif" 
        font-size="9" fill="#E0E0E0">GEOPARK RALLY</text>
</svg>ン -->
<svg width="96" height="96" viewBox="0 0 96 96" xmlns="http://www.w3.org/2000/svg">
  <defs>
    <linearGradient id="bg96" x1="0%" y1="0%" x2="100%" y2="100%">
      <stop offset="0%" style="stop-color:#87CEEB"/>
      <stop offset="100%" style="stop-color:#4682B4"/>
    </linearGradient>
  </defs>
  <circle cx="48" cy="48" r="44" fill="url(#bg96)" stroke="#FFFFFF" stroke-width="2"/>
  <path d="M 20 72 Q 30 60 36 64 Q 48 56 60 64 Q 66 60 76 72 L 76 84 L 20 84 Z" fill="#FFFFFF" opacity="0.8"/>
  <circle cx="48" cy="36" r="16" fill="#FFD700" stroke="#FFA500" stroke-width="2"/>
  <text x="48" y="42" text-anchor="middle" font-size="14" fill="#8B4513">🏔️</text>
</svg>
